<svg version="1.1" xmlns="http://www.w3.org/2000/svg" xmlns:xlink="http://www.w3.org/1999/xlink" width="177.15463" height="119.94223" viewBox="0,0,177.15463,119.94223"><g transform="translate(-146.26366,-108.95859)"><g data-paper-data="{&quot;isPaintingLayer&quot;:true}" fill="#9966ff" fill-rule="nonzero" stroke="none" stroke-width="0.5" stroke-linecap="butt" stroke-linejoin="miter" stroke-miterlimit="10" stroke-dasharray="" stroke-dashoffset="0" style="mix-blend-mode: normal"><path d="M322.9416,224.41869c1.38675,2.08013 -0.69338,3.46688 -0.69338,3.46688l-2.27982,1.01525c-4.72962,-0.00869 -9.5757,-0.48738 -14.17828,-1.58138c-14.65935,-3.52602 -29.08183,-7.3171 -43.4046,-12.09856c-7.65575,-2.55577 -15.42583,-4.49968 -22.88688,-7.65892c-9.58823,-4.05995 -18.88341,-8.86499 -28.26472,-13.38932c-5.15715,-1.88426 -9.75417,-4.8474 -14.58077,-7.45701c-8.5273,-4.61048 -17.14378,-10.13739 -24.50009,-16.48577c-4.5315,-3.91062 -8.39538,-8.68515 -12.62007,-12.91032c-4.68714,-4.68769 -9.11464,-9.13079 -12.81653,-14.67133c0,0 -1.38675,-2.08012 0.69338,-3.46687c2.08013,-1.38675 3.46687,0.69338 3.46687,0.69338c3.50535,5.27055 7.73794,9.45415 12.18943,13.90691c4.14654,4.14772 7.93496,8.85615 12.3859,12.69103c7.07786,6.0982 15.37739,11.41578 23.578,15.84409c4.68282,2.52871 9.13844,5.43661 14.1452,7.24817c9.39713,4.5175 18.69692,9.34094 28.2964,13.40279c7.33238,3.10257 14.97382,4.99892 22.49716,7.51048c14.18389,4.7351 28.46706,8.50163 42.98817,11.97933c4.20303,1.01981 8.68576,1.45223 13.01142,1.44332l-0.49368,-0.17551c0,0 2.08013,-1.38675 3.46688,0.69338z"/><path d="M236.24476,165.82428c-2.23607,1.11803 -3.35411,-1.11803 -3.35411,-1.11803l-0.69134,-1.45108c-3.23408,-4.52783 -6.0075,-8.96672 -8.4925,-13.94381c-6.99061,-11.63948 -14.0724,-23.18966 -19.9626,-35.3549c-0.13555,-0.27994 0.13493,0.6784 -0.04516,0.932c-0.5765,0.81184 -1.34197,1.48181 -2.1148,2.10963c-0.85455,0.6942 -1.86868,1.17055 -2.74442,1.83781c-3.52272,2.68408 -5.53923,5.07853 -5.8769,9.55354c0,0 -0.22634,2.48973 -2.71607,2.26339c-2.48973,-0.22634 -2.26339,-2.71607 -2.26339,-2.71607c0.12761,-1.2441 0.00714,-2.53944 0.38283,-3.7323c1.7164,-5.44987 5.95497,-7.7469 10.04801,-11.07308c1.47307,-1.19709 3.81767,-4.70968 6.17537,-4.10292c1.88037,0.48391 5.62659,7.02584 6.44661,8.48046c5.59339,9.92203 11.20735,19.64337 17.05354,29.3964c2.40562,4.80477 5.05312,9.06875 8.17815,13.44367l1.09481,2.1212c0,0 1.11804,2.23607 -1.11803,3.3541z"/><path d="M315.65529,154.58478c-1.11804,2.23607 -3.3541,1.11803 -3.3541,1.11803l-1.78614,-0.89307c-5.84743,-3.0525 -9.09929,2.72165 -13.46778,5.8831c-2.76938,2.00419 -5.89592,3.46456 -8.77901,5.3014c-5.30895,3.38237 -9.48504,6.98776 -15.81696,8.09758c0,0 -2.46599,0.411 -2.87698,-2.05498c-0.411,-2.46598 2.05499,-2.87698 2.05499,-2.87698c5.52531,-0.8614 9.31804,-4.4293 13.95205,-7.38231c2.73789,-1.74472 5.72482,-3.10152 8.35761,-5.00114c4.90319,-3.53776 8.98317,-9.65178 16.02065,-7.79113c0.99959,0.26429 1.861,0.90156 2.7915,1.35233l1.78614,0.89307c0,0 2.23606,1.11803 1.11803,3.3541z"/><path d="M222.6347,155.50674c2.42535,0.60634 1.81902,3.03169 1.81902,3.03169l-1.1226,3.40216c-2.31366,2.69573 -3.93391,4.45216 -7.27182,5.77458c0,0 -2.34082,0.87781 -3.21864,-1.46301c-0.87781,-2.34082 1.46302,-3.21863 1.46302,-3.21863c2.53901,-0.87151 3.49544,-2.31903 5.23116,-4.34689l0.06816,-1.36088c0,0 0.60634,-2.42536 3.0317,-1.81902z"/><path d="M299.1655,164.8393c2.32119,0.92847 1.39272,3.24967 1.39272,3.24967l-0.4569,1.00719c-0.49441,2.66985 0.02024,7.15362 -1.09357,9.55406c-0.53177,1.14605 -1.71683,1.85402 -2.57524,2.78102c0,0 -1.76777,1.76776 -3.53553,0c-1.76776,-1.76776 0,-3.53553 0,-3.53553c2.61579,-2.27776 1.68069,-6.31579 2.28499,-9.69398l0.73387,-1.96972c0,0 0.92847,-2.32119 3.24966,-1.39271z"/><path d="M250.77677,151.99252c0.02745,0.06389 0.05498,0.12767 0.08262,0.19133zM250.6695,151.74112c0.0702,0.07171 1.72848,1.80247 -0.00228,3.53323c-1.76777,1.76777 -3.53553,0 -3.53553,0l-0.86803,-1.1209c-3.9992,-9.43183 -5.79038,-24.00922 -16.82813,-28.04383c0,0 -2.34082,-0.87781 -1.46301,-3.21863c0.87781,-2.34082 3.21863,-1.46301 3.21863,-1.46301c12.744,4.87576 14.78157,19.23321 19.47835,30.31315z"/><path d="M288.30775,130.76107c1.11803,2.23607 -1.11803,3.3541 -1.11803,3.3541l-1.54515,0.69827c-5.02297,4.17716 -9.15695,8.57049 -13.12682,13.78465c-1.99687,2.62275 -3.63581,4.2434 -4.28136,7.47839c0,0 -0.54233,2.44047 -2.98279,1.89814c-2.44047,-0.54233 -1.89814,-2.98279 -1.89814,-2.98279c0.95407,-4.00086 2.7137,-6.17846 5.18066,-9.41807c4.19774,-5.51246 8.6079,-10.17668 13.90753,-14.60142l2.51,-1.3293c0,0 2.23607,-1.11803 3.3541,1.11803z"/></g></g></svg>